<mxfile host="app.diagrams.net" modified="2024-02-28T07:05:28.869Z" agent="Mozilla/5.0 (Macintosh; Intel Mac OS X 10_15_7) AppleWebKit/605.1.15 (KHTML, like Gecko) Version/17.2.1 Safari/605.1.15" etag="DkJnPWQ7_Eb-4OOkLyQN" version="23.1.6" type="device">
  <diagram name="第 1 页" id="cGWJRbSGrXOqShXYI5Sk">
    <mxGraphModel dx="1434" dy="802" grid="1" gridSize="10" guides="1" tooltips="1" connect="1" arrows="1" fold="1" page="1" pageScale="1" pageWidth="827" pageHeight="1169" math="0" shadow="0">
      <root>
        <mxCell id="0" />
        <mxCell id="1" parent="0" />
        <mxCell id="DW7ZlOijjUDmyXGVmol2-19" value="" style="group;movable=0;resizable=0;rotatable=0;deletable=0;editable=0;locked=1;connectable=0;" vertex="1" connectable="0" parent="1">
          <mxGeometry width="320" height="320" as="geometry" />
        </mxCell>
        <mxCell id="DW7ZlOijjUDmyXGVmol2-4" value="0" style="text;html=1;align=center;verticalAlign=middle;whiteSpace=wrap;rounded=0;" vertex="1" parent="DW7ZlOijjUDmyXGVmol2-19">
          <mxGeometry width="40" height="40" as="geometry" />
        </mxCell>
        <mxCell id="DW7ZlOijjUDmyXGVmol2-5" value="1" style="text;html=1;align=center;verticalAlign=middle;whiteSpace=wrap;rounded=0;" vertex="1" parent="DW7ZlOijjUDmyXGVmol2-19">
          <mxGeometry x="40" width="40" height="40" as="geometry" />
        </mxCell>
        <mxCell id="DW7ZlOijjUDmyXGVmol2-6" value="2" style="text;html=1;align=center;verticalAlign=middle;whiteSpace=wrap;rounded=0;" vertex="1" parent="DW7ZlOijjUDmyXGVmol2-19">
          <mxGeometry x="80" width="40" height="40" as="geometry" />
        </mxCell>
        <mxCell id="DW7ZlOijjUDmyXGVmol2-7" value="3" style="text;html=1;align=center;verticalAlign=middle;whiteSpace=wrap;rounded=0;" vertex="1" parent="DW7ZlOijjUDmyXGVmol2-19">
          <mxGeometry x="120" width="40" height="40" as="geometry" />
        </mxCell>
        <mxCell id="DW7ZlOijjUDmyXGVmol2-8" value="4" style="text;html=1;align=center;verticalAlign=middle;whiteSpace=wrap;rounded=0;" vertex="1" parent="DW7ZlOijjUDmyXGVmol2-19">
          <mxGeometry x="160" width="40" height="40" as="geometry" />
        </mxCell>
        <mxCell id="DW7ZlOijjUDmyXGVmol2-9" value="5" style="text;html=1;align=center;verticalAlign=middle;whiteSpace=wrap;rounded=0;" vertex="1" parent="DW7ZlOijjUDmyXGVmol2-19">
          <mxGeometry x="200" width="40" height="40" as="geometry" />
        </mxCell>
        <mxCell id="DW7ZlOijjUDmyXGVmol2-10" value="6" style="text;html=1;align=center;verticalAlign=middle;whiteSpace=wrap;rounded=0;" vertex="1" parent="DW7ZlOijjUDmyXGVmol2-19">
          <mxGeometry x="240" width="40" height="40" as="geometry" />
        </mxCell>
        <mxCell id="DW7ZlOijjUDmyXGVmol2-11" value="7" style="text;html=1;align=center;verticalAlign=middle;whiteSpace=wrap;rounded=0;" vertex="1" parent="DW7ZlOijjUDmyXGVmol2-19">
          <mxGeometry x="280" width="40" height="40" as="geometry" />
        </mxCell>
        <mxCell id="DW7ZlOijjUDmyXGVmol2-12" value="1" style="text;html=1;align=center;verticalAlign=middle;whiteSpace=wrap;rounded=0;" vertex="1" parent="DW7ZlOijjUDmyXGVmol2-19">
          <mxGeometry y="40" width="40" height="40" as="geometry" />
        </mxCell>
        <mxCell id="DW7ZlOijjUDmyXGVmol2-13" value="2" style="text;html=1;align=center;verticalAlign=middle;whiteSpace=wrap;rounded=0;" vertex="1" parent="DW7ZlOijjUDmyXGVmol2-19">
          <mxGeometry y="80" width="40" height="40" as="geometry" />
        </mxCell>
        <mxCell id="DW7ZlOijjUDmyXGVmol2-14" value="3" style="text;html=1;align=center;verticalAlign=middle;whiteSpace=wrap;rounded=0;" vertex="1" parent="DW7ZlOijjUDmyXGVmol2-19">
          <mxGeometry y="120" width="40" height="40" as="geometry" />
        </mxCell>
        <mxCell id="DW7ZlOijjUDmyXGVmol2-15" value="4" style="text;html=1;align=center;verticalAlign=middle;whiteSpace=wrap;rounded=0;" vertex="1" parent="DW7ZlOijjUDmyXGVmol2-19">
          <mxGeometry y="160" width="40" height="40" as="geometry" />
        </mxCell>
        <mxCell id="DW7ZlOijjUDmyXGVmol2-16" value="5" style="text;html=1;align=center;verticalAlign=middle;whiteSpace=wrap;rounded=0;" vertex="1" parent="DW7ZlOijjUDmyXGVmol2-19">
          <mxGeometry y="200" width="40" height="40" as="geometry" />
        </mxCell>
        <mxCell id="DW7ZlOijjUDmyXGVmol2-17" value="6" style="text;html=1;align=center;verticalAlign=middle;whiteSpace=wrap;rounded=0;" vertex="1" parent="DW7ZlOijjUDmyXGVmol2-19">
          <mxGeometry y="240" width="40" height="40" as="geometry" />
        </mxCell>
        <mxCell id="DW7ZlOijjUDmyXGVmol2-18" value="7" style="text;html=1;align=center;verticalAlign=middle;whiteSpace=wrap;rounded=0;" vertex="1" parent="DW7ZlOijjUDmyXGVmol2-19">
          <mxGeometry y="280" width="40" height="40" as="geometry" />
        </mxCell>
        <mxCell id="DW7ZlOijjUDmyXGVmol2-1" value="" style="whiteSpace=wrap;html=1;aspect=fixed;fillStyle=hatch;fillColor=#FF3333;" vertex="1" parent="1">
          <mxGeometry x="460" y="120" width="120" height="120" as="geometry" />
        </mxCell>
        <mxCell id="DW7ZlOijjUDmyXGVmol2-3" value="" style="whiteSpace=wrap;html=1;aspect=fixed;fillStyle=hatch;fillColor=#3399FF;" vertex="1" parent="1">
          <mxGeometry x="580" y="240" width="120" height="120" as="geometry" />
        </mxCell>
        <mxCell id="DW7ZlOijjUDmyXGVmol2-45" style="rounded=0;orthogonalLoop=1;jettySize=auto;html=1;exitX=1;exitY=1;exitDx=0;exitDy=0;entryX=0;entryY=0;entryDx=0;entryDy=0;" edge="1" parent="1" source="DW7ZlOijjUDmyXGVmol2-43" target="DW7ZlOijjUDmyXGVmol2-44">
          <mxGeometry relative="1" as="geometry" />
        </mxCell>
        <mxCell id="DW7ZlOijjUDmyXGVmol2-43" value="" style="ellipse;whiteSpace=wrap;html=1;aspect=fixed;fillColor=#FF6666;" vertex="1" parent="1">
          <mxGeometry x="50" y="50" width="20" height="20" as="geometry" />
        </mxCell>
        <mxCell id="DW7ZlOijjUDmyXGVmol2-44" value="" style="ellipse;whiteSpace=wrap;html=1;aspect=fixed;fillColor=#66B2FF;" vertex="1" parent="1">
          <mxGeometry x="90" y="90" width="20" height="20" as="geometry" />
        </mxCell>
      </root>
    </mxGraphModel>
  </diagram>
</mxfile>
